<?xml version="1.0" encoding="UTF-8"?> <svg xmlns="http://www.w3.org/2000/svg" xmlns:xlink="http://www.w3.org/1999/xlink" id="Layer_1" width="500" height="500" viewBox="0 0 500 500"><defs><style>.cls-1{fill:#fff;}.cls-2{fill:#0267c1;}.cls-3{clip-path:url(#clippath-1);}.cls-4{fill:#5dc678;}.cls-5{fill:none;}.cls-6{fill:#c1e0f7;}</style><clipPath id="clippath-1"><rect class="cls-5" x="286.3887" y="318.0388" width="148.1061" height="78.4563" rx="5" ry="5"></rect></clipPath></defs><g><g><g><path class="cls-1" d="M105.7201,176.6862H400.2902v181.1477c0,4.9965-4.0565,9.053-9.053,9.053H114.7731c-4.9965,0-9.053-4.0565-9.053-9.053V176.6862h0Z"></path><path d="M391.2373,367.3867H114.7734c-5.2676,0-9.5537-4.2852-9.5537-9.5527V176.1865H400.79v181.6475c0,5.2676-4.2852,9.5527-9.5527,9.5527ZM106.2197,177.1865v180.6475c0,4.7158,3.8369,8.5527,8.5537,8.5527H391.2373c4.7158,0,8.5527-3.8369,8.5527-8.5527V177.1865H106.2197Z"></path></g><g><path class="cls-1" d="M169.7225,190.0676c0,22.9938-18.6478,41.6416-41.641,41.6416-23.0054,0-41.6416-18.6478-41.6416-41.6416h83.2826Z"></path><path d="M128.0811,232.209c-23.2373,0-42.1416-18.9043-42.1416-42.1416v-.5h84.2832v.5c0,23.2373-18.9043,42.1416-42.1416,42.1416Zm-41.1387-41.6416c.2695,22.4551,18.6211,40.6416,41.1387,40.6416s40.8691-18.1865,41.1387-40.6416H86.9424Z"></path></g><g><path class="cls-2" d="M253.0051,190.0676c0,22.9938-18.6478,41.6416-41.641,41.6416-23.0054,0-41.6416-18.6478-41.6416-41.6416h83.2826Z"></path><path d="M211.3643,232.209c-23.2373,0-42.1416-18.9043-42.1416-42.1416v-.5h84.2822v.5c0,23.2373-18.9043,42.1416-42.1406,42.1416Zm-41.1387-41.6416c.2695,22.4551,18.6211,40.6416,41.1387,40.6416s40.8682-18.1865,41.1377-40.6416h-82.2764Z"></path></g><g><path class="cls-1" d="M336.2878,190.0676c0,22.9938-18.6478,41.6416-41.641,41.6416-23.0054,0-41.6416-18.6478-41.6416-41.6416h83.2826Z"></path><path d="M294.6465,232.209c-23.2373,0-42.1416-18.9043-42.1416-42.1416v-.5h84.2832v.5c0,23.2373-18.9043,42.1416-42.1416,42.1416Zm-41.1387-41.6416c.2695,22.4551,18.6211,40.6416,41.1387,40.6416s40.8691-18.1865,41.1387-40.6416h-82.2773Z"></path></g><g><path class="cls-2" d="M419.5704,190.0676c0,22.9938-18.6478,41.6416-41.641,41.6416-23.0054,0-41.6416-18.6478-41.6416-41.6416h83.2826Z"></path><path d="M377.9297,232.209c-23.2373,0-42.1416-18.9043-42.1416-42.1416v-.5h84.2822v.5c0,23.2373-18.9043,42.1416-42.1406,42.1416Zm-41.1387-41.6416c.2695,22.4551,18.6211,40.6416,41.1387,40.6416s40.8682-18.1865,41.1377-40.6416h-82.2764Z"></path></g><g><polygon class="cls-2" points="190.6798 103.5049 169.7225 190.3988 253.0052 190.3988 253.0052 103.5049 190.6798 103.5049"></polygon><path d="M253.5049,190.8984h-84.417l.1484-.6172,21.0498-87.2764h63.2188v87.8936Zm-83.1475-1h82.1475V104.0049h-61.4316l-20.7158,85.8936Z"></path></g><g><path class="cls-1" d="M127.9249,109.7743l-41.5864,80.6245h83.384l20.9573-86.8939h-52.4667c-4.3324,0-8.3021,2.4191-10.2881,6.2694Z"></path><path d="M170.1162,190.8984H85.5186l41.9619-81.3535c2.0811-4.0342,6.1934-6.54,10.7324-6.54h53.1016l-.1484,.6172-21.0498,87.2764Zm-82.957-1h82.1699l20.7158-85.8936h-51.832c-4.1631,0-7.9346,2.2988-9.8438,5.999l-41.21,79.8945Z"></path></g><g><path class="cls-2" d="M419.6719,190.3988l-41.5869-80.6245c-1.986-3.8503-5.9558-6.2694-10.2881-6.2694h-53.3255l21.8164,86.8939h83.3841Z"></path><path d="M420.4922,190.8984h-84.5938l-.0957-.3779-21.9717-87.5156h53.9658c4.5391,0,8.6514,2.5059,10.7324,6.54l41.9629,81.3535Zm-83.8145-1h82.1738l-41.2109-79.8945c-1.9092-3.7002-5.6807-5.999-9.8438-5.999h-52.6846l21.5654,85.8936Z"></path></g><g><polygon class="cls-1" points="314.4714 103.5049 253.0052 103.5049 253.0052 190.3988 336.2878 190.3988 314.4714 103.5049"></polygon><path d="M336.9287,190.8984h-84.4238V103.0049h62.3564l.0957,.3779,21.9717,87.5156Zm-83.4238-1h82.1426l-21.5654-85.8936h-60.5771v85.8936Z"></path></g><rect class="cls-6" x="136.6099" y="247.4204" width="124.9239" height="82.945" rx="5.0393" ry="5.0393"></rect><path class="cls-6" d="M298.8659,247.4204h62.9558c2.3288,0,4.2195,1.8907,4.2195,4.2195v115.2469h-71.3947v-115.2469c0-2.3288,1.8907-4.2195,4.2195-4.2195Z"></path></g><g><rect class="cls-4" x="286.3887" y="318.0388" width="148.1061" height="78.4563" rx="5" ry="5"></rect><rect class="cls-1" x="293.0186" y="324.413" width="134.8463" height="65.7078"></rect><g class="cls-3"><path class="cls-4" d="M308.7813,324.413c0,8.2757-6.7088,14.9844-14.9844,14.9844s-14.9844-6.7088-14.9844-14.9844,6.7088-6.0501,14.9844-6.0501,14.9844-2.2255,14.9844,6.0501Z"></path><path class="cls-4" d="M308.7813,390.1209c0,8.2757-6.7088,14.9844-14.9844,14.9844s-14.9844-6.7088-14.9844-14.9844,6.7088-14.9844,14.9844-14.9844,14.9844,6.7088,14.9844,14.9844Z"></path><path class="cls-4" d="M442.8493,324.413c0,8.2757-6.7088,14.9844-14.9844,14.9844s-14.9844-6.7088-14.9844-14.9844,6.7088-6.0501,14.9844-6.0501,14.9844-2.2255,14.9844,6.0501Z"></path><path class="cls-4" d="M442.8493,390.1209c0,8.2757-6.7088,14.9844-14.9844,14.9844s-14.9844-6.7088-14.9844-14.9844,6.7088-14.9844,14.9844-14.9844,14.9844,6.7088,14.9844,14.9844Z"></path></g></g><g><path d="M321.4492,368.1689c-1.8145,0-3.4297-.3701-4.8477-1.1104-1.418-.7393-2.5273-1.7559-3.3301-3.0488-.8027-1.292-1.2031-2.7715-1.2031-4.4404v-13.4766h5.377v13.1953c0,.793,.1777,1.5068,.5332,2.1426,.3535,.6357,.832,1.1357,1.4375,1.501,.6035,.3643,1.2812,.5469,2.0332,.5469,.791,0,1.4941-.1826,2.1094-.5469,.6152-.3652,1.1113-.8652,1.4863-1.501s.5625-1.3496,.5625-2.1426v-13.1953h5.1914v13.4766c0,1.6689-.4023,3.1484-1.2051,4.4404-.8027,1.293-1.9121,2.3096-3.3301,3.0488-1.418,.7402-3.0215,1.1104-4.8145,1.1104Z"></path><path d="M336.1465,367.9814v-21.8887h4.752l7.9746,12.9766-3.4082-.0312,8.0664-12.9453h4.5664v21.8887h-5.1602v-6.8164c0-1.877,.0469-3.5654,.1406-5.0664s.2559-2.9912,.4844-4.4717l.5957,1.626-6.0664,9.4131h-2.0645l-5.9414-9.3506,.5938-1.6885c.2285,1.3975,.3906,2.8301,.4844,4.2998s.1406,3.2158,.1406,5.2383v6.8164h-5.1582Z"></path><path d="M363.6016,367.9814v-21.8887h5.3145v21.8887h-5.3145Zm3.877-6.4102l-1.377-4.4717,10.8516-11.0068h6.2852l-15.7598,15.4785Zm10.1621,6.4102l-8.1289-10.6943,3.5957-3.0957,10.7246,13.79h-6.1914Z"></path><path d="M386.709,367.9814v-21.8887h4.7539l7.9727,12.9766-3.4082-.0312,8.0684-12.9453h4.5645v21.8887h-5.1582v-6.8164c0-1.877,.0469-3.5654,.1406-5.0664s.2539-2.9912,.4844-4.4717l.5938,1.626-6.0664,9.4131h-2.0645l-5.9414-9.3506,.5957-1.6885c.2285,1.3975,.3906,2.8301,.4844,4.2998s.1406,3.2158,.1406,5.2383v6.8164h-5.1602Z"></path></g></g><g><g><rect class="cls-2" x="65.5052" y="273.6773" width="84.4975" height="122.8114" rx="13.1435" ry="13.1435"></rect><path d="M136.8594,396.9883h-58.2109c-7.5234,0-13.6436-6.1201-13.6436-13.6426v-96.5244c0-7.5234,6.1201-13.6436,13.6436-13.6436h58.2109c7.5234,0,13.6436,6.1201,13.6436,13.6436v96.5244c0,7.5225-6.1201,13.6426-13.6436,13.6426Zm-58.2109-122.8105c-6.9717,0-12.6436,5.6719-12.6436,12.6436v96.5244c0,6.9707,5.6719,12.6426,12.6436,12.6426h58.2109c6.9717,0,12.6436-5.6719,12.6436-12.6426v-96.5244c0-6.9717-5.6719-12.6436-12.6436-12.6436h-58.2109Z"></path></g><rect class="cls-1" x="72.4285" y="283.6666" width="70.6509" height="24.3057" rx="3.9768" ry="3.9768"></rect><rect class="cls-1" x="72.4285" y="314.5551" width="14.5357" height="11.7386" rx="3.9768" ry="3.9768"></rect><rect class="cls-1" x="91.1336" y="314.5551" width="14.5357" height="11.7386" rx="3.9768" ry="3.9768"></rect><rect class="cls-1" x="109.8386" y="314.5551" width="14.5357" height="11.7386" rx="3.9768" ry="3.9768"></rect><rect class="cls-1" x="128.5436" y="314.5551" width="14.5357" height="11.7386" rx="3.9768" ry="3.9768"></rect><rect class="cls-1" x="72.4285" y="329.47" width="14.5357" height="11.7386" rx="3.9768" ry="3.9768"></rect><rect class="cls-1" x="91.1336" y="329.47" width="14.5357" height="11.7386" rx="3.9768" ry="3.9768"></rect><rect class="cls-1" x="109.8386" y="329.47" width="14.5357" height="11.7386" rx="3.9768" ry="3.9768"></rect><rect class="cls-1" x="128.5436" y="329.47" width="14.5357" height="11.7386" rx="3.9768" ry="3.9768"></rect><rect class="cls-1" x="72.4285" y="344.3849" width="14.5357" height="11.7386" rx="3.9768" ry="3.9768"></rect><rect class="cls-1" x="91.1336" y="344.3849" width="14.5357" height="11.7386" rx="3.9768" ry="3.9768"></rect><rect class="cls-1" x="109.8386" y="344.3849" width="14.5357" height="11.7386" rx="3.9768" ry="3.9768"></rect><rect class="cls-1" x="128.5436" y="344.3849" width="14.5357" height="11.7386" rx="3.9768" ry="3.9768"></rect><rect class="cls-1" x="72.4285" y="359.2998" width="14.5357" height="11.7386" rx="3.9768" ry="3.9768"></rect><rect class="cls-1" x="91.1336" y="359.2998" width="14.5357" height="11.7386" rx="3.9768" ry="3.9768"></rect><rect class="cls-1" x="109.8386" y="359.2998" width="14.5357" height="11.7386" rx="3.9768" ry="3.9768"></rect><rect class="cls-1" x="72.4285" y="374.2147" width="33.2408" height="11.7386" rx="3.9768" ry="3.9768"></rect><rect class="cls-1" x="109.8386" y="374.2147" width="14.5357" height="11.7386" rx="3.9768" ry="3.9768"></rect><rect class="cls-1" x="128.5436" y="359.2998" width="14.5357" height="26.6534" rx="3.9768" ry="3.9768"></rect></g></svg> 